<?xml version="1.0" encoding="iso-8859-1"?>
<!-- Generator: Adobe Illustrator 19.0.0, SVG Export Plug-In . SVG Version: 6.00 Build 0)  -->
<svg version="1.1" id="Layer_1" xmlns="http://www.w3.org/2000/svg" xmlns:xlink="http://www.w3.org/1999/xlink" x="0px" y="0px"
	 viewBox="0 0 512 512" style="enable-background:new 0 0 512 512;" xml:space="preserve">
<path style="fill:#6D6E71;" d="M429.378,215.408V86.221c0-12.259-9.939-22.198-22.198-22.198H209.608
	c-12.259,0-22.198,9.939-22.198,22.198s9.939,22.198,22.198,22.198H384.98v106.988c-26.666,9.227-45.876,34.574-45.876,64.339
	c0,12.259,9.939,22.198,22.198,22.198c12.259,0,22.198-9.939,22.198-22.198c0-13.057,10.623-23.678,23.678-23.678
	c13.055,0,23.678,10.621,23.678,23.678c0,12.259,9.939,22.198,22.198,22.198c12.259,0,22.198-9.939,22.198-22.198
	C475.253,249.981,456.044,224.635,429.378,215.408z"/>
<path style="fill:#FFD155;" d="M251.282,376.516H74.717c-12.259,0-22.198-9.939-22.198-22.198v-75.671
	c0-38.434,19.494-73.507,52.147-93.818c14.754-9.177,33.923,1.444,33.923,18.849v33.149c0,13.464,10.947,24.418,24.403,24.418
	c13.464,0,24.418-10.954,24.418-24.418v-33.149c0-17.368,19.132-28.035,33.91-18.858c31.584,19.616,52.16,54.415,52.16,93.827
	v75.671C273.48,366.577,263.541,376.516,251.282,376.516z"/>
<path style="fill:#FFC72D;" d="M221.32,184.819c-14.754-9.165-33.91,1.461-33.91,18.857v33.149c0,13.462-10.95,24.414-24.411,24.417
	v115.272h88.282c12.259,0,22.198-9.939,22.198-22.198v-75.669C273.48,239.305,252.952,204.463,221.32,184.819z"/>
<path style="fill:#D1D3D4;" d="M162.992,305.64c-37.937,0-68.8-30.87-68.8-68.814V68.8c0-37.937,30.863-68.8,68.8-68.8
	c38.04,0,68.814,30.742,68.814,68.8v168.026C231.806,274.769,200.936,305.64,162.992,305.64z"/>
<path style="fill:#BCBEC0;" d="M162.999,0v305.64c37.941-0.004,68.807-30.872,68.807-68.814V68.8
	C231.806,30.765,201.054,0.004,162.999,0z"/>
<g>
	<circle style="fill:#808285;" cx="162.995" cy="219.407" r="11.365"/>
	<circle style="fill:#808285;" cx="162.995" cy="86.218" r="11.365"/>
</g>
<path style="fill:#E87E04;" d="M251.282,452.177H74.717c-12.259,0-22.198-9.939-22.198-22.198v-75.662
	c0-12.259,9.939-22.198,22.198-22.198h176.564c12.259,0,22.198,9.939,22.198,22.198v75.662
	C273.48,442.24,263.541,452.177,251.282,452.177z"/>
<path style="fill:#D55400;" d="M251.282,332.119h-88.282v120.058h88.282c12.259,0,22.198-9.939,22.198-22.198v-75.662
	C273.48,342.058,263.541,332.119,251.282,332.119z"/>
<path style="fill:#808285;" d="M267.041,512H58.956c-14.546,0-25.173-13.787-21.466-27.856l15.764-59.817
	c2.569-9.748,11.385-16.542,21.466-16.542h176.556c10.081,0,18.897,6.793,21.466,16.542l15.764,59.817
	C292.214,498.209,281.59,512,267.041,512z"/>
<g>
	<path style="fill:#6D6E71;" d="M174.365,219.41c0-6.276-5.088-11.365-11.365-11.365v22.731
		C169.277,230.775,174.365,225.688,174.365,219.41z"/>
	<path style="fill:#6D6E71;" d="M174.365,86.221c0-6.276-5.088-11.365-11.365-11.365v22.731
		C169.277,97.586,174.365,92.498,174.365,86.221z"/>
	<path style="fill:#6D6E71;" d="M288.507,484.144l-15.764-59.817c-2.569-9.748-11.385-16.542-21.466-16.542h-88.278v104.213h104.041
		C281.587,512,292.214,498.212,288.507,484.144z"/>
</g>
<circle style="fill:#BCBEC0;" cx="407.175" cy="86.04" r="45.876"/>
<g>
</g>
<g>
</g>
<g>
</g>
<g>
</g>
<g>
</g>
<g>
</g>
<g>
</g>
<g>
</g>
<g>
</g>
<g>
</g>
<g>
</g>
<g>
</g>
<g>
</g>
<g>
</g>
<g>
</g>
</svg>
